<?xml version="1.0" encoding="UTF-8"?>
<!DOCTYPE svg PUBLIC "-//W3C//DTD SVG 1.1//EN" "http://www.w3.org/Graphics/SVG/1.1/DTD/svg11.dtd">
<!-- Creator: CorelDRAW -->
<svg xmlns="http://www.w3.org/2000/svg" xml:space="preserve" width="70.8794mm" height="25.3071mm" version="1.1" style="shape-rendering:geometricPrecision; text-rendering:geometricPrecision; image-rendering:optimizeQuality; fill-rule:evenodd; clip-rule:evenodd"
viewBox="0 0 4449.29 1588.59"
 xmlns:xlink="http://www.w3.org/1999/xlink"
 xmlns:xodm="http://www.corel.com/coreldraw/odm/2003">
 <defs>
  <style type="text/css">
   <![CDATA[
    .fil1 {fill:none}
    .fil0 {fill:#fff}
    .fil2 {fill:#C7AD75;fill-rule:nonzero}
   ]]>
  </style>
    <clipPath id="id0">
     <path d="M113.24 1545.29l74.77 -277.72c0,0 -320.45,-316.88 -124.62,-793.97 195.82,-477.1 834.68,-514.49 882.99,-448.62 0,0 -694.29,35.6 -687.17,729.9 1.75,170.37 44.29,302.51 110.63,403.34l-121.31 269.58 291.03 -100.83c217.02,142.26 410.38,168.28 627.57,68.79 217.18,-99.49 224.31,-117.49 224.31,-117.49 -35.68,73.34 -259.92,323.99 -573.23,309.75 -313.32,-14.24 -398.78,-103.25 -398.78,-103.25l-306.19 60.53z"/>
    </clipPath>
     <clipPath id="id1">
     </clipPath>
     <clipPath id="id2">
      <path d="M113.24 1545.29l74.77 -277.72c0,0 -320.45,-316.88 -124.62,-793.97 195.82,-477.1 834.68,-514.49 882.99,-448.62 0,0 -694.29,35.6 -687.17,729.9 1.75,170.37 44.29,302.51 110.63,403.34l-121.31 269.58 291.03 -100.83c217.02,142.26 410.38,168.28 627.57,68.79 217.18,-99.49 224.31,-117.49 224.31,-117.49 -35.68,73.34 -259.92,323.99 -573.23,309.75 -313.32,-14.24 -398.78,-103.25 -398.78,-103.25l-306.19 60.53z"/>
     </clipPath>
    <clipPath id="id3" style="clip-rule:nonzero">
     <path d="M1731.92 1089.39l-62.58 0 0 64.54 50.52 0 0 31.95 -50.52 0 0 67.79 62.58 0 0 31.95 -97.13 0 0 -228.16 97.13 0 0 31.94z"/>
    </clipPath>
     <clipPath id="id4">
     </clipPath>
     <clipPath id="id5">
      <path d="M1731.92 1089.39l-62.58 0 0 64.54 50.52 0 0 31.95 -50.52 0 0 67.79 62.58 0 0 31.95 -97.13 0 0 -228.16 97.13 0 0 31.94z"/>
     </clipPath>
    <clipPath id="id6" style="clip-rule:nonzero">
     <path d="M2050.71 1285.62l-33.9 0 -45.31 -151.24 -0.65 0 0 151.24 -32.59 0 0 -228.16 38.46 0 40.74 135.92 0.65 0 0 -135.92 32.6 0 0 228.16z"/>
    </clipPath>
     <clipPath id="id7">
     </clipPath>
     <clipPath id="id8">
      <path d="M2050.71 1285.62l-33.9 0 -45.31 -151.24 -0.65 0 0 151.24 -32.59 0 0 -228.16 38.46 0 40.74 135.92 0.65 0 0 -135.92 32.6 0 0 228.16z"/>
     </clipPath>
    <clipPath id="id9" style="clip-rule:nonzero">
     <path d="M2358.1 1090.05l-36.83 0 0 195.57 -34.55 0 0 -195.57 -36.84 0 0 -32.59 108.21 0 0 32.59z"/>
    </clipPath>
     <clipPath id="id10">
     </clipPath>
     <clipPath id="id11">
      <path d="M2358.1 1090.05l-36.83 0 0 195.57 -34.55 0 0 -195.57 -36.84 0 0 -32.59 108.21 0 0 32.59z"/>
     </clipPath>
    <clipPath id="id12" style="clip-rule:nonzero">
     <path d="M2654.4 1089.39l-62.58 0 0 64.54 50.52 0 0 31.95 -50.52 0 0 67.79 62.58 0 0 31.95 -97.13 0 0 -228.16 97.13 0 0 31.94z"/>
    </clipPath>
     <clipPath id="id13">
     </clipPath>
     <clipPath id="id14">
      <path d="M2654.4 1089.39l-62.58 0 0 64.54 50.52 0 0 31.95 -50.52 0 0 67.79 62.58 0 0 31.95 -97.13 0 0 -228.16 97.13 0 0 31.94z"/>
     </clipPath>
    <clipPath id="id15" style="clip-rule:nonzero">
     <path d="M2938.65 1285.62l-27.38 -96.48 -15.97 0 0 96.48 -34.55 0 0 -228.16 49.87 0c18.69,0 32.92,4.94 42.7,14.83 9.78,9.89 14.67,24.17 14.67,42.86l0 16.3c0,24.12 -8.15,40.85 -24.44,50.2l31.61 103.98 -36.5 0zm-43.35 -196.22l0 67.8 14.02 0c8.25,0 14.34,-2.28 18.25,-6.85 3.91,-4.56 5.87,-11.63 5.87,-21.19l0 -11.73c0,-9.56 -1.96,-16.62 -5.87,-21.19 -3.91,-4.56 -9.99,-6.85 -18.25,-6.85l-14.02 0z"/>
    </clipPath>
     <clipPath id="id16">
     </clipPath>
     <clipPath id="id17">
      <path d="M2938.65 1285.62l-27.38 -96.48 -15.97 0 0 96.48 -34.55 0 0 -228.16 49.87 0c18.69,0 32.92,4.94 42.7,14.83 9.78,9.89 14.67,24.17 14.67,42.86l0 16.3c0,24.12 -8.15,40.85 -24.44,50.2l31.61 103.98 -36.5 0zm-43.35 -196.22l0 67.8 14.02 0c8.25,0 14.34,-2.28 18.25,-6.85 3.91,-4.56 5.87,-11.63 5.87,-21.19l0 -11.73c0,-9.56 -1.96,-16.62 -5.87,-21.19 -3.91,-4.56 -9.99,-6.85 -18.25,-6.85l-14.02 0z"/>
     </clipPath>
    <clipPath id="id18" style="clip-rule:nonzero">
     <path d="M3227.12 1057.46c18.69,0 32.92,4.94 42.7,14.83 9.78,9.89 14.67,24.17 14.67,42.86l0 18.25c0,18.69 -4.89,32.97 -14.67,42.86 -9.77,9.89 -24.01,14.83 -42.7,14.83l-15.32 0 0 94.52 -34.55 0 0 -228.16 49.87 0zm-15.32 31.94l0 69.75 14.02 0c8.25,0 14.34,-2.28 18.25,-6.84 3.91,-4.56 5.87,-11.63 5.87,-21.19l0 -13.69c0,-9.56 -1.96,-16.62 -5.87,-21.19 -3.91,-4.56 -9.99,-6.85 -18.25,-6.85l-14.02 0z"/>
    </clipPath>
     <clipPath id="id19">
     </clipPath>
     <clipPath id="id20">
      <path d="M3227.12 1057.46c18.69,0 32.92,4.94 42.7,14.83 9.78,9.89 14.67,24.17 14.67,42.86l0 18.25c0,18.69 -4.89,32.97 -14.67,42.86 -9.77,9.89 -24.01,14.83 -42.7,14.83l-15.32 0 0 94.52 -34.55 0 0 -228.16 49.87 0zm-15.32 31.94l0 69.75 14.02 0c8.25,0 14.34,-2.28 18.25,-6.84 3.91,-4.56 5.87,-11.63 5.87,-21.19l0 -13.69c0,-9.56 -1.96,-16.62 -5.87,-21.19 -3.91,-4.56 -9.99,-6.85 -18.25,-6.85l-14.02 0z"/>
     </clipPath>
    <clipPath id="id21" style="clip-rule:nonzero">
     <path d="M3564.82 1285.62l-27.38 -96.48 -15.97 0 0 96.48 -34.55 0 0 -228.16 49.87 0c18.69,0 32.92,4.94 42.7,14.83 9.78,9.89 14.67,24.17 14.67,42.86l0 16.3c0,24.12 -8.15,40.85 -24.44,50.2l31.61 103.98 -36.5 0zm-43.35 -196.22l0 67.8 14.02 0c8.25,0 14.34,-2.28 18.25,-6.85 3.91,-4.56 5.87,-11.63 5.87,-21.19l0 -11.73c0,-9.56 -1.96,-16.62 -5.87,-21.19 -3.91,-4.56 -9.99,-6.85 -18.25,-6.85l-14.02 0z"/>
    </clipPath>
     <clipPath id="id22">
     </clipPath>
     <clipPath id="id23">
      <path d="M3564.82 1285.62l-27.38 -96.48 -15.97 0 0 96.48 -34.55 0 0 -228.16 49.87 0c18.69,0 32.92,4.94 42.7,14.83 9.78,9.89 14.67,24.17 14.67,42.86l0 16.3c0,24.12 -8.15,40.85 -24.44,50.2l31.61 103.98 -36.5 0zm-43.35 -196.22l0 67.8 14.02 0c8.25,0 14.34,-2.28 18.25,-6.85 3.91,-4.56 5.87,-11.63 5.87,-21.19l0 -11.73c0,-9.56 -1.96,-16.62 -5.87,-21.19 -3.91,-4.56 -9.99,-6.85 -18.25,-6.85l-14.02 0z"/>
     </clipPath>
    <clipPath id="id24" style="clip-rule:nonzero">
     <path d="M3837.98 1285.62l-34.55 0 0 -228.16 34.55 0 0 228.16z"/>
    </clipPath>
     <clipPath id="id25">
     </clipPath>
     <clipPath id="id26">
      <path d="M3837.98 1285.62l-34.55 0 0 -228.16 34.55 0 0 228.16z"/>
     </clipPath>
    <clipPath id="id27" style="clip-rule:nonzero">
     <path d="M4092.56 1054.19c16.52,0 29.23,4.46 38.14,13.36 8.91,8.91 13.36,21.51 13.36,37.81l0 5.87 -33.25 3.26 0 -8.47c0,-6.52 -1.52,-11.46 -4.56,-14.83 -3.04,-3.37 -7.39,-5.05 -13.04,-5.05 -5.65,0 -9.99,1.68 -13.04,5.05 -3.04,3.36 -4.56,8.31 -4.56,14.83l0 2.94c0,6.95 2.07,13.74 6.2,20.37 4.13,6.63 11.73,14.61 22.82,23.95 15.86,13.48 27.05,25.64 33.57,36.51 6.52,10.87 9.78,23.03 9.78,36.51l0 11.41c0,16.3 -4.62,28.9 -13.85,37.81 -9.23,8.91 -22.43,13.36 -39.6,13.36 -17.17,0 -30.37,-4.45 -39.6,-13.36 -9.23,-8.91 -13.85,-21.51 -13.85,-37.81l0 -15.32 33.25 -3.26 0 16.3c0,14.34 6.52,21.51 19.55,21.51 13.04,0 19.56,-7.17 19.56,-21.51l0 -7.5c0,-7.39 -2.18,-14.39 -6.52,-21.02 -4.34,-6.63 -12.17,-14.72 -23.46,-24.28 -15.65,-13.26 -26.62,-25.26 -32.92,-36.02 -6.3,-10.76 -9.45,-22.87 -9.45,-36.35l0 -4.89c0,-16.3 4.46,-28.9 13.36,-37.81 8.91,-8.91 21.63,-13.36 38.13,-13.36z"/>
    </clipPath>
     <clipPath id="id28">
     </clipPath>
     <clipPath id="id29">
      <path d="M4092.56 1054.19c16.52,0 29.23,4.46 38.14,13.36 8.91,8.91 13.36,21.51 13.36,37.81l0 5.87 -33.25 3.26 0 -8.47c0,-6.52 -1.52,-11.46 -4.56,-14.83 -3.04,-3.37 -7.39,-5.05 -13.04,-5.05 -5.65,0 -9.99,1.68 -13.04,5.05 -3.04,3.36 -4.56,8.31 -4.56,14.83l0 2.94c0,6.95 2.07,13.74 6.2,20.37 4.13,6.63 11.73,14.61 22.82,23.95 15.86,13.48 27.05,25.64 33.57,36.51 6.52,10.87 9.78,23.03 9.78,36.51l0 11.41c0,16.3 -4.62,28.9 -13.85,37.81 -9.23,8.91 -22.43,13.36 -39.6,13.36 -17.17,0 -30.37,-4.45 -39.6,-13.36 -9.23,-8.91 -13.85,-21.51 -13.85,-37.81l0 -15.32 33.25 -3.26 0 16.3c0,14.34 6.52,21.51 19.55,21.51 13.04,0 19.56,-7.17 19.56,-21.51l0 -7.5c0,-7.39 -2.18,-14.39 -6.52,-21.02 -4.34,-6.63 -12.17,-14.72 -23.46,-24.28 -15.65,-13.26 -26.62,-25.26 -32.92,-36.02 -6.3,-10.76 -9.45,-22.87 -9.45,-36.35l0 -4.89c0,-16.3 4.46,-28.9 13.36,-37.81 8.91,-8.91 21.63,-13.36 38.13,-13.36z"/>
     </clipPath>
    <clipPath id="id30" style="clip-rule:nonzero">
     <path d="M4442.97 1089.39l-62.58 0 0 64.54 50.52 0 0 31.95 -50.52 0 0 67.79 62.58 0 0 31.95 -97.13 0 0 -228.16 97.13 0 0 31.94z"/>
    </clipPath>
     <clipPath id="id31">
     </clipPath>
     <clipPath id="id32">
      <path d="M4442.97 1089.39l-62.58 0 0 64.54 50.52 0 0 31.95 -50.52 0 0 67.79 62.58 0 0 31.95 -97.13 0 0 -228.16 97.13 0 0 31.94z"/>
     </clipPath>
 </defs>
 <g id="Camada_x0020_1">
  <metadata id="CorelCorpID_0Corel-Layer"/>
  <g id="_1520423726960">
   <g>
    <path class="fil0" d="M633.57 795.96c-51.77,0 -86.02,-39.03 -86.02,-86.02 0,-47 34.25,-86.82 86.02,-86.82 31.86,0 57.35,15.13 72.48,38.23l111.51 -66.9c-36.64,-58.94 -103.55,-96.38 -183.99,-96.38 -125.85,0 -216.65,91.6 -216.65,211.88 0,119.48 90.8,211.87 216.65,211.87 80.44,0 147.35,-38.23 183.99,-96.38l-111.51 -66.9c-15.13,22.3 -40.63,37.44 -72.48,37.44zm235.77 -442.07l0 557.56 129.83 0 0 -557.56 -129.83 0z"/>
    <path class="fil0" d="M1092.76 911.45l129.04 0 0 -403.83 -129.04 0 0 403.83zm64.52 -448.44c37.44,0 67.7,-31.07 67.7,-68.5 0,-37.43 -30.26,-67.7 -67.7,-67.7 -37.44,0 -67.71,30.27 -67.71,67.7 0,37.44 30.27,68.5 67.71,68.5z"/>
    <path class="fil0" d="M1502.17 795.96c-51.77,0 -86.03,-39.03 -86.03,-86.02 0,-47 34.26,-86.82 86.03,-86.82 31.86,0 57.35,15.13 72.48,38.23l111.51 -66.9c-36.64,-58.94 -103.55,-96.38 -183.99,-96.38 -125.85,0 -216.65,91.6 -216.65,211.88 0,119.48 90.8,211.87 216.65,211.87 80.44,0 147.35,-38.23 183.99,-96.38l-111.51 -66.9c-15.13,22.3 -40.63,37.44 -72.48,37.44z"/>
    <polygon class="fil0" points="2133.81,911.45 1988.84,698.79 2123.45,507.62 1978.48,507.62 1867.77,674.89 1867.77,353.89 1737.94,353.89 1737.94,911.45 1867.77,911.45 1867.77,733.83 1982.47,911.45 "/>
    <path class="fil0" d="M2645.17 498.06c-55.75,0 -92.4,24.69 -116.29,54.17 -21.51,-32.66 -58.14,-54.17 -113.9,-54.17 -46.99,0 -78.86,17.53 -99.56,40.62l0 -31.06 -129.83 0 0 403.83 129.83 0 0 -231.78c0,-44.61 33.46,-54.96 54.17,-54.96 20.71,0 53.36,9.56 53.36,54.96l0 231.78 129.83 0 0 -231.78c0,-44.61 32.66,-54.96 53.37,-54.96 20.71,0 54.16,9.56 54.16,54.96l0 231.78 129.04 0 0 -266.83c0,-81.25 -45.4,-146.56 -144.17,-146.56z"/>
    <path class="fil0" d="M3056.18 498.06c-77.26,0 -137.79,26.29 -181.61,72.48l84.44 57.35c15.93,-12.74 43.81,-25.49 76.46,-25.49 47,0 66.11,27.09 66.11,65.31l0 1.59c-8.76,0 -29.47,0 -47.79,0 -27.09,0 -200.72,0 -200.72,133.82 0,97.97 83.63,118.68 137.79,118.68 41.42,0 89.21,-16.73 110.72,-47.79l0 37.43 129.04 0 0 -250.9c0,-96.37 -45.4,-162.49 -174.44,-162.49zm45.4 300.29c-11.15,15.13 -38.23,28.67 -66.11,28.67 -27.88,0 -51.77,-11.15 -51.77,-40.62 0,-40.63 43.01,-52.57 107.53,-52.57 3.19,0 7.17,0 10.36,0l0 64.52z"/>
    <path class="fil0" d="M3500.63 661.35c-31.86,-6.37 -75.67,-7.97 -75.67,-34.25 0,-22.3 23.9,-29.47 49.38,-29.47 23.9,0 41.42,10.36 46.2,29.47l108.33 -26.28c-17.53,-68.5 -86.03,-102.75 -155.32,-102.75 -101.16,0 -173.64,48.59 -173.64,133.02 0,78.86 42.21,106.74 119.48,124.26 47.79,10.36 90,8.76 90,36.64 0,20.71 -21.51,28.67 -48.59,28.67 -36.64,0 -52.57,-16.73 -57.35,-32.66l-117.09 36.65c16.73,70.88 94.79,97.17 176.03,97.17 117.88,0 180.81,-50.18 180.81,-135.41 0,-74.08 -40.63,-103.55 -142.58,-125.06z"/>
    <path class="fil0" d="M3885.36 661.35c-31.86,-6.37 -75.67,-7.97 -75.67,-34.25 0,-22.3 23.9,-29.47 49.38,-29.47 23.9,0 41.42,10.36 46.2,29.47l108.33 -26.28c-17.53,-68.5 -86.02,-102.75 -155.32,-102.75 -101.16,0 -173.64,48.59 -173.64,133.02 0,78.86 42.22,106.74 119.48,124.26 47.79,10.36 90,8.76 90,36.64 0,20.71 -21.51,28.67 -48.59,28.67 -36.64,0 -52.57,-16.73 -57.35,-32.66l-117.09 36.65c16.73,70.88 94.79,97.17 176.03,97.17 117.88,0 180.81,-50.18 180.81,-135.41 0,-74.08 -40.63,-103.55 -142.58,-125.06z"/>
    <path class="fil0" d="M4274.85 498.06c-77.26,0 -137.79,26.29 -181.6,72.48l84.43 57.35c15.93,-12.74 43.81,-25.49 76.46,-25.49 47,0 66.11,27.09 66.11,65.31l0 1.59c-8.76,0 -29.47,0 -47.79,0 -27.08,0 -200.72,0 -200.72,133.82 0,97.97 83.63,118.68 137.8,118.68 41.42,0 89.21,-16.73 110.71,-47.79l0 37.43 129.04 0 0 -250.9c0,-96.37 -45.4,-162.49 -174.44,-162.49zm45.4 300.29c-11.15,15.13 -38.23,28.67 -66.11,28.67 -27.88,0 -51.77,-11.15 -51.77,-40.62 0,-40.63 43.01,-52.57 107.53,-52.57 3.18,0 7.17,0 10.35,0l0 64.52z"/>
   </g>
   <path class="fil2" d="M113.24 1545.29l74.77 -277.72c0,0 -320.45,-316.88 -124.62,-793.97 195.82,-477.1 834.68,-514.49 882.99,-448.62 0,0 -694.29,35.6 -687.17,729.9 1.75,170.37 44.29,302.51 110.63,403.34l-121.31 269.58 291.03 -100.83c217.02,142.26 410.38,168.28 627.57,68.79 217.18,-99.49 224.31,-117.49 224.31,-117.49 -35.68,73.34 -259.92,323.99 -573.23,309.75 -313.32,-14.24 -398.78,-103.25 -398.78,-103.25l-306.19 60.53z"/>
   <g style="clip-path:url(#id0)">
    <g>
    </g>
    <g style="clip-path:url(#id1)">
     <image x="-8083.33" y="-1272.38" width="5172.61" height="5172.61" xlink:href="Clickmassa enterprise_Images\Clickmassa enterprise_ImgID1.png"/>
    </g>
    <g style="clip-path:url(#id2)">
    </g>
   </g>
   <path class="fil1" d="M113.24 1545.29l74.77 -277.72c0,0 -320.45,-316.88 -124.62,-793.97 195.82,-477.1 834.68,-514.49 882.99,-448.62 0,0 -694.29,35.6 -687.17,729.9 1.75,170.37 44.29,302.51 110.63,403.34l-121.31 269.58 291.03 -100.83c217.02,142.26 410.38,168.28 627.57,68.79 217.18,-99.49 224.31,-117.49 224.31,-117.49 -35.68,73.34 -259.92,323.99 -573.23,309.75 -313.32,-14.24 -398.78,-103.25 -398.78,-103.25l-306.19 60.53z"/>
   <path class="fil2" d="M1731.92 1089.39l-62.58 0 0 64.54 50.52 0 0 31.95 -50.52 0 0 67.79 62.58 0 0 31.95 -97.13 0 0 -228.16 97.13 0 0 31.94zm318.8 196.22l-33.9 0 -45.31 -151.24 -0.65 0 0 151.24 -32.59 0 0 -228.16 38.46 0 40.74 135.92 0.65 0 0 -135.92 32.6 0 0 228.16zm307.39 -195.57l-36.83 0 0 195.57 -34.55 0 0 -195.57 -36.84 0 0 -32.59 108.21 0 0 32.59zm296.3 -0.65l-62.58 0 0 64.54 50.52 0 0 31.95 -50.52 0 0 67.79 62.58 0 0 31.95 -97.13 0 0 -228.16 97.13 0 0 31.94zm284.25 196.22l-27.38 -96.48 -15.97 0 0 96.48 -34.55 0 0 -228.16 49.87 0c18.69,0 32.92,4.94 42.7,14.83 9.78,9.89 14.67,24.17 14.67,42.86l0 16.3c0,24.12 -8.15,40.85 -24.44,50.2l31.61 103.98 -36.5 0zm-43.35 -196.22l0 67.8 14.02 0c8.25,0 14.34,-2.28 18.25,-6.85 3.91,-4.56 5.87,-11.63 5.87,-21.19l0 -11.73c0,-9.56 -1.96,-16.62 -5.87,-21.19 -3.91,-4.56 -9.99,-6.85 -18.25,-6.85l-14.02 0zm331.83 -31.94c18.69,0 32.92,4.94 42.7,14.83 9.78,9.89 14.67,24.17 14.67,42.86l0 18.25c0,18.69 -4.89,32.97 -14.67,42.86 -9.77,9.89 -24.01,14.83 -42.7,14.83l-15.32 0 0 94.52 -34.55 0 0 -228.16 49.87 0zm-15.32 31.94l0 69.75 14.02 0c8.25,0 14.34,-2.28 18.25,-6.84 3.91,-4.56 5.87,-11.63 5.87,-21.19l0 -13.69c0,-9.56 -1.96,-16.62 -5.87,-21.19 -3.91,-4.56 -9.99,-6.85 -18.25,-6.85l-14.02 0zm353.01 196.22l-27.38 -96.48 -15.97 0 0 96.48 -34.55 0 0 -228.16 49.87 0c18.69,0 32.92,4.94 42.7,14.83 9.78,9.89 14.67,24.17 14.67,42.86l0 16.3c0,24.12 -8.15,40.85 -24.44,50.2l31.61 103.98 -36.5 0zm-43.35 -196.22l0 67.8 14.02 0c8.25,0 14.34,-2.28 18.25,-6.85 3.91,-4.56 5.87,-11.63 5.87,-21.19l0 -11.73c0,-9.56 -1.96,-16.62 -5.87,-21.19 -3.91,-4.56 -9.99,-6.85 -18.25,-6.85l-14.02 0zm316.51 196.22l-34.55 0 0 -228.16 34.55 0 0 228.16zm254.57 -231.42c16.52,0 29.23,4.46 38.14,13.36 8.91,8.91 13.36,21.51 13.36,37.81l0 5.87 -33.25 3.26 0 -8.47c0,-6.52 -1.52,-11.46 -4.56,-14.83 -3.04,-3.37 -7.39,-5.05 -13.04,-5.05 -5.65,0 -9.99,1.68 -13.04,5.05 -3.04,3.36 -4.56,8.31 -4.56,14.83l0 2.94c0,6.95 2.07,13.74 6.2,20.37 4.13,6.63 11.73,14.61 22.82,23.95 15.86,13.48 27.05,25.64 33.57,36.51 6.52,10.87 9.78,23.03 9.78,36.51l0 11.41c0,16.3 -4.62,28.9 -13.85,37.81 -9.23,8.91 -22.43,13.36 -39.6,13.36 -17.17,0 -30.37,-4.45 -39.6,-13.36 -9.23,-8.91 -13.85,-21.51 -13.85,-37.81l0 -15.32 33.25 -3.26 0 16.3c0,14.34 6.52,21.51 19.55,21.51 13.04,0 19.56,-7.17 19.56,-21.51l0 -7.5c0,-7.39 -2.18,-14.39 -6.52,-21.02 -4.34,-6.63 -12.17,-14.72 -23.46,-24.28 -15.65,-13.26 -26.62,-25.26 -32.92,-36.02 -6.3,-10.76 -9.45,-22.87 -9.45,-36.35l0 -4.89c0,-16.3 4.46,-28.9 13.36,-37.81 8.91,-8.91 21.63,-13.36 38.13,-13.36zm350.41 35.2l-62.58 0 0 64.54 50.52 0 0 31.95 -50.52 0 0 67.79 62.58 0 0 31.95 -97.13 0 0 -228.16 97.13 0 0 31.94z"/>
   <g style="clip-path:url(#id3)">
    <g>
    </g>
    <g style="clip-path:url(#id4)">
     <image x="-8090.09" y="-1249.68" width="5172.61" height="5172.61" xlink:href="Clickmassa enterprise_Images\Clickmassa enterprise_ImgID2.png"/>
    </g>
    <g style="clip-path:url(#id5)">
    </g>
   </g>
   <g style="clip-path:url(#id6)">
    <g>
    </g>
    <g style="clip-path:url(#id7)">
     <image x="-8090.09" y="-1249.68" width="5172.61" height="5172.61" xlink:href="Clickmassa enterprise_Images\Clickmassa enterprise_ImgID3.png"/>
    </g>
    <g style="clip-path:url(#id8)">
    </g>
   </g>
   <g style="clip-path:url(#id9)">
    <g>
    </g>
    <g style="clip-path:url(#id10)">
     <image x="-8090.09" y="-1249.68" width="5172.61" height="5172.61" xlink:href="Clickmassa enterprise_Images\Clickmassa enterprise_ImgID4.png"/>
    </g>
    <g style="clip-path:url(#id11)">
    </g>
   </g>
   <g style="clip-path:url(#id12)">
    <g>
    </g>
    <g style="clip-path:url(#id13)">
     <image x="-8090.09" y="-1249.68" width="5172.61" height="5172.61" xlink:href="Clickmassa enterprise_Images\Clickmassa enterprise_ImgID5.png"/>
    </g>
    <g style="clip-path:url(#id14)">
    </g>
   </g>
   <g style="clip-path:url(#id15)">
    <g>
    </g>
    <g style="clip-path:url(#id16)">
     <image x="-8090.09" y="-1249.68" width="5172.61" height="5172.61" xlink:href="Clickmassa enterprise_Images\Clickmassa enterprise_ImgID6.png"/>
    </g>
    <g style="clip-path:url(#id17)">
    </g>
   </g>
   <g style="clip-path:url(#id18)">
    <g>
    </g>
    <g style="clip-path:url(#id19)">
     <image x="-8090.09" y="-1249.68" width="5172.61" height="5172.61" xlink:href="Clickmassa enterprise_Images\Clickmassa enterprise_ImgID7.png"/>
    </g>
    <g style="clip-path:url(#id20)">
    </g>
   </g>
   <g style="clip-path:url(#id21)">
    <g>
    </g>
    <g style="clip-path:url(#id22)">
     <image x="-8090.09" y="-1249.68" width="5172.61" height="5172.61" xlink:href="Clickmassa enterprise_Images\Clickmassa enterprise_ImgID8.png"/>
    </g>
    <g style="clip-path:url(#id23)">
    </g>
   </g>
   <g style="clip-path:url(#id24)">
    <g>
    </g>
    <g style="clip-path:url(#id25)">
     <image x="-8090.09" y="-1249.68" width="5172.61" height="5172.61" xlink:href="Clickmassa enterprise_Images\Clickmassa enterprise_ImgID9.png"/>
    </g>
    <g style="clip-path:url(#id26)">
    </g>
   </g>
   <g style="clip-path:url(#id27)">
    <g>
    </g>
    <g style="clip-path:url(#id28)">
     <image x="-8090.09" y="-1249.68" width="5172.61" height="5172.61" xlink:href="Clickmassa enterprise_Images\Clickmassa enterprise_ImgID10.png"/>
    </g>
    <g style="clip-path:url(#id29)">
    </g>
   </g>
   <g style="clip-path:url(#id30)">
    <g>
    </g>
    <g style="clip-path:url(#id31)">
     <image x="-8090.09" y="-1249.68" width="5172.61" height="5172.61" xlink:href="Clickmassa enterprise_Images\Clickmassa enterprise_ImgID11.png"/>
    </g>
    <g style="clip-path:url(#id32)">
    </g>
   </g>
  </g>
 </g>
</svg>
