<svg width="50" height="50" viewBox="0 0 50 50" fill="none" xmlns="http://www.w3.org/2000/svg">
<path d="M35.9202 0C33.9195 0.0146819 31.9298 0.297505 30.0042 0.840914L29.8679 0.881824C28.6549 0.674104 27.4278 0.559375 26.1974 0.53864C23.6678 0.495458 21.4928 1.09092 19.7427 2.0841C18.0154 1.50228 14.4336 0.500003 10.6585 0.700004C8.02895 0.838641 5.16073 1.61365 3.03571 3.79093C0.915224 5.96822 -0.205245 9.33642 0.031122 13.9205C0.0947592 15.1865 0.465218 17.2478 1.08341 19.9206C1.69705 22.591 2.56525 25.7161 3.6448 28.5684C4.72436 31.4229 5.90847 33.9866 7.75849 35.7275C8.68123 36.6002 9.9517 37.3343 11.4494 37.273C12.5017 37.232 13.454 36.7843 14.2745 36.1229C14.6745 36.6343 15.1018 36.857 15.4904 37.0639C15.979 37.323 16.4563 37.5002 16.9495 37.6184C18.3154 37.968 19.7377 38.0384 21.1314 37.8252C21.7382 37.7275 22.3769 37.5366 23.0132 37.2639C23.036 37.9502 23.0632 38.623 23.0928 39.3048C23.1791 41.4639 23.236 43.4571 23.9041 45.2048C24.011 45.4912 24.3042 46.9617 25.4655 48.2594C26.6246 49.5594 28.8974 50.3685 31.4838 49.8321C33.3088 49.4526 35.6316 48.7685 37.1725 46.6412C38.6952 44.5366 39.3839 41.5162 39.5203 36.6207C39.5543 36.357 39.5953 36.132 39.6384 35.9207L40.0021 35.9525H40.043C41.9907 36.0389 44.1044 35.7707 45.8703 34.9752C47.434 34.2707 48.6158 33.5616 49.4772 32.3002C49.6931 31.9888 49.9295 31.6116 49.9931 30.9593C50.0567 30.3116 49.6749 29.2934 49.0363 28.8252C47.7567 27.8843 46.9544 28.2411 46.0931 28.4161C45.2453 28.5979 44.3817 28.6979 43.5112 28.7184C45.9953 24.6638 47.7749 20.3547 48.7908 16.541C49.3908 14.291 49.7295 12.216 49.7567 10.4023C49.784 8.58869 49.6317 6.98186 48.5113 5.59094C45.009 1.25001 40.0839 0.0500002 36.2748 0.00909085C36.1566 0.00681811 36.0384 0.00454553 35.9202 0.00681827V0ZM35.8202 1.3341C39.4225 1.30001 44.0271 2.28183 47.3317 6.37958C48.0749 7.30004 48.2954 8.64551 48.2704 10.3046C48.2431 11.9614 47.9272 13.9433 47.3499 16.116C46.2294 20.3251 44.1112 25.2297 41.1271 29.6343C41.2333 29.7073 41.3477 29.7675 41.468 29.8138C42.0907 30.0638 43.5089 30.2775 46.3431 29.7138C47.0544 29.5661 47.5772 29.4684 48.1181 29.8684C48.2478 29.9756 48.3508 30.1114 48.4191 30.2652C48.4873 30.4191 48.5189 30.5866 48.5113 30.7547C48.4817 31.0087 48.3853 31.2503 48.2317 31.4547C47.6863 32.2525 46.6044 33.0093 45.2181 33.632C43.993 34.1866 42.2339 34.4752 40.6748 34.4934C39.893 34.5002 39.1725 34.4411 38.5611 34.257L38.5202 34.2434C38.2839 36.4502 37.7407 40.8116 37.3884 42.8003C37.1043 44.4048 36.6089 45.6798 35.6611 46.6344C34.7156 47.5889 33.3793 48.1639 31.5792 48.5389C29.3497 49.0026 27.7247 48.5026 26.6769 47.6458C25.6314 46.7935 25.1519 45.6594 24.8633 44.9639C24.6655 44.4866 24.5632 43.8662 24.4632 43.0366C24.3534 42.0434 24.2799 41.0465 24.2428 40.048C24.1773 38.2965 24.156 36.5437 24.1792 34.7911C23.2473 35.6184 22.0882 36.1684 20.845 36.3752C19.3677 36.6184 18.045 36.3798 17.2563 36.1889C16.8696 36.0938 16.4957 35.9526 16.1427 35.7684C15.7745 35.5798 15.4268 35.3661 15.1949 34.9434C15.0584 34.7021 15.0147 34.4192 15.0722 34.1479C15.1465 33.8723 15.3114 33.6297 15.5404 33.4593C15.9677 33.1229 16.5291 32.9366 17.3768 32.7638C18.9223 32.457 19.4609 32.2457 19.7882 31.9934C20.0677 31.7775 20.3837 31.3411 20.9427 30.6979C20.94 30.6699 20.9378 30.6419 20.9359 30.6138C19.9389 30.5867 18.9615 30.3309 18.0791 29.8661C17.7586 30.1956 16.1131 31.8843 14.1063 34.2252C13.2631 35.2048 12.3313 35.7661 11.3472 35.807C10.3631 35.8479 9.47442 35.3661 8.71987 34.657C7.20848 33.2343 6.00392 30.7866 4.95391 28.0206C3.90844 25.2524 3.05389 22.1706 2.44933 19.5456C1.84024 16.9206 1.48114 14.8046 1.43114 13.7842C1.20386 9.44551 2.24933 6.52277 4.04481 4.67957C5.84029 2.83638 8.29941 2.13865 10.6994 2.00456C15.004 1.76365 19.0927 3.22047 19.92 3.53411C21.5132 2.48411 23.5655 1.82956 26.1315 1.87047C27.3477 1.8871 28.5582 2.03956 29.7406 2.32501L29.7838 2.30683C30.3042 2.12956 30.8338 1.97956 31.3702 1.86138C32.8302 1.53116 34.3211 1.35594 35.8179 1.33864L35.8202 1.3341ZM36.1452 2.72956H35.8338C34.6042 2.74615 33.3789 2.8801 32.1747 3.12957C34.5651 4.1705 36.6653 5.77919 38.293 7.81596C39.2786 9.03469 40.0965 10.38 40.7248 11.816C40.9612 12.366 41.1203 12.8319 41.2089 13.191C41.2544 13.3728 41.2862 13.5251 41.2953 13.6842C41.304 13.7849 41.2956 13.8863 41.2703 13.9842L41.2566 14.0115C41.3225 15.8365 40.8566 17.0728 40.7998 18.8138C40.7566 20.0774 41.0885 21.5615 41.1703 23.1774C41.2475 24.7002 41.0589 26.3706 40.0407 28.0115C40.1271 28.1115 40.2044 28.2115 40.2862 28.3115C42.9794 24.1979 44.9226 19.6433 45.9567 15.7637C46.509 13.6728 46.8044 11.7796 46.8294 10.2796C46.8522 8.7796 46.5635 7.69096 46.1953 7.23868C43.3135 3.66366 39.4157 2.75456 36.1452 2.72956ZM25.861 3.26366C23.3223 3.2682 21.4996 4.01366 20.12 5.1273C18.695 6.27958 17.7404 7.85459 17.1132 9.47051C16.5059 11.0854 16.1347 12.7793 16.0109 14.5001L16.0404 14.4842C16.8063 14.066 17.8132 13.6501 18.8905 13.4092C19.97 13.1683 21.1314 13.0933 22.1837 13.4887C23.236 13.8864 24.1064 14.816 24.4223 16.2296C25.9337 23.0161 23.9519 25.5388 23.2201 27.4411C22.9431 28.1308 22.7056 28.8358 22.5087 29.5525C22.6019 29.5297 22.695 29.507 22.786 29.4979C23.1852 29.4763 23.5835 29.5544 23.9451 29.7252C24.6814 30.0206 25.186 30.6388 25.4587 31.3479C25.5292 31.5343 25.5814 31.7343 25.611 31.9388C25.6428 32.0252 25.6564 32.1138 25.6542 32.2047C25.5726 34.7997 25.5817 37.3968 25.6814 39.9912C25.7314 41.1139 25.8042 42.1003 25.8974 42.8798C25.9883 43.6571 26.1201 44.248 26.2042 44.448C26.4769 45.1162 26.8792 45.9889 27.6065 46.5821C28.3338 47.173 29.3724 47.5685 31.2747 47.173C32.9247 46.8298 33.9429 46.3548 34.6247 45.6662C35.302 44.9821 35.7088 44.0298 35.9679 42.5684C36.3566 40.3798 37.1384 34.0366 37.2316 32.8411C37.1907 31.9434 37.327 31.2502 37.6225 30.7229C37.9293 30.182 38.4021 29.8502 38.8089 29.6706C39.0134 29.5797 39.2043 29.5206 39.3612 29.4775C39.1947 29.2458 39.0204 29.0199 38.8384 28.8002C38.2525 28.1114 37.7708 27.3403 37.4089 26.5115C37.236 26.1699 37.0518 25.8341 36.8566 25.5047C36.5725 25.0047 36.2111 24.3797 35.8338 23.6774C35.077 22.2706 34.2543 20.566 33.827 18.9047C33.402 17.2478 33.3384 15.5319 34.4293 14.3205C35.3975 13.2455 37.0929 12.8001 39.6407 13.0501C39.5657 12.8319 39.5203 12.6501 39.393 12.3592C38.815 11.0403 38.0637 9.80437 37.1589 8.68414C34.9997 6.00686 31.5065 3.35229 26.1065 3.26593L25.861 3.26366ZM11.5972 3.37048C11.3244 3.37048 11.0517 3.37957 10.779 3.3932C8.61078 3.51366 6.56075 4.12503 5.09482 5.63413C3.62435 7.14095 2.65843 9.6137 2.86752 13.7092C2.9107 14.4819 3.25844 16.6546 3.8539 19.2319C4.44936 21.8138 5.29482 24.8479 6.30847 27.5274C7.32212 30.2093 8.55396 32.5434 9.72215 33.6479C10.3108 34.2002 10.8222 34.4229 11.2858 34.4048C11.7517 34.382 12.3108 34.1229 12.9972 33.3252C14.2472 31.8625 15.5434 30.4398 16.8836 29.0593C15.9371 28.2648 15.2081 27.2426 14.7654 26.0888C14.3284 24.9453 14.1953 23.7081 14.379 22.4979C14.5995 20.9569 14.629 19.516 14.604 18.3797C14.5768 17.2706 14.4949 16.5342 14.4949 16.0728V16.0092C14.4929 13.6072 14.9232 11.2245 15.7654 8.97506C16.3654 7.42505 17.2609 5.85004 18.6041 4.57503C17.2859 4.15457 14.9449 3.51366 12.4108 3.3932C12.1383 3.37899 11.8655 3.37141 11.5926 3.37048H11.5972ZM38.2202 14.3751C36.7634 14.3933 35.9452 14.7592 35.5157 15.2365C34.9066 15.9137 34.8497 17.1001 35.227 18.5638C35.602 20.0274 36.3793 21.666 37.1111 23.0251C37.4748 23.707 37.8293 24.3206 38.1157 24.8161C38.4043 25.3161 38.6157 25.6706 38.743 25.9752C38.8612 26.2524 38.993 26.4979 39.1248 26.7274C39.6884 25.5706 39.7907 24.4365 39.7316 23.2524C39.6566 21.7888 39.3066 20.291 39.3589 18.7751C39.4157 17.0024 39.7771 15.8456 39.8089 14.4751C39.2819 14.4089 38.7513 14.3755 38.2202 14.3751ZM20.5382 14.6137C20.093 14.6179 19.6496 14.6697 19.2155 14.7683C18.3525 14.9715 17.5197 15.2862 16.7381 15.7046C16.4768 15.841 16.2245 16.0001 15.9881 16.1796L15.9427 16.2206C15.9563 16.5251 16.0177 17.2637 16.045 18.3478C16.0677 19.5365 16.0404 21.0524 15.804 22.6888C15.2904 26.2524 17.9541 29.2025 21.0859 29.207C21.2678 28.4752 21.57 27.7343 21.87 26.9524C22.7428 24.6729 24.4587 23.0115 23.0132 16.5228C22.7769 15.4615 22.3087 15.0319 21.6632 14.7887C21.3014 14.6647 20.9206 14.6055 20.5382 14.6137ZM37.5384 15.0387H37.6475C37.7884 15.0433 37.9202 15.0592 38.0339 15.0842C38.1384 15.105 38.2385 15.1443 38.3293 15.2001C38.3704 15.2248 38.406 15.2577 38.4338 15.2969C38.4615 15.336 38.4809 15.3804 38.4907 15.4274V15.4456C38.4943 15.5452 38.4673 15.6435 38.4134 15.7274C38.3496 15.8417 38.2701 15.9466 38.1771 16.0387C37.9572 16.273 37.6666 16.4287 37.3498 16.4819C37.0394 16.5187 36.7262 16.442 36.4679 16.266C36.3634 16.1981 36.2693 16.1154 36.1884 16.0206C36.1189 15.9473 36.0717 15.8559 36.052 15.7569C36.0472 15.7083 36.0529 15.6593 36.0685 15.613C36.0842 15.5668 36.1096 15.5244 36.1429 15.4887C36.2143 15.411 36.2999 15.3477 36.3952 15.3024C36.7543 15.1344 37.1444 15.0431 37.5407 15.0342L37.5384 15.0387ZM20.7473 15.3887C20.8609 15.3887 20.9814 15.4001 21.1041 15.416C21.4314 15.4615 21.7246 15.5456 21.9473 15.6706C22.0564 15.7274 22.1519 15.8001 22.2337 15.891C22.2762 15.9394 22.3086 15.9958 22.3291 16.0569C22.3495 16.1176 22.3565 16.1819 22.3496 16.2456C22.3284 16.3659 22.2723 16.4773 22.1882 16.566C22.1001 16.6717 21.9967 16.7636 21.8814 16.8387C21.5992 17.0311 21.2567 17.1144 20.9178 17.0728C20.5735 17.0183 20.257 16.8513 20.0177 16.5978C19.9169 16.497 19.8312 16.3822 19.7632 16.2569C19.6924 16.1479 19.6611 16.018 19.6746 15.8887C19.7064 15.6615 19.8996 15.5478 20.0836 15.4796C20.2969 15.4142 20.52 15.3865 20.7427 15.3978L20.7473 15.3887ZM40.2021 30.6888H40.1953C39.8794 30.8025 39.6203 30.8479 39.3998 30.9388C39.1805 31.0208 38.9987 31.18 38.8884 31.3866C38.7521 31.6252 38.6384 32.0502 38.6725 32.7729C38.7703 32.8379 38.8776 32.887 38.9907 32.9184C39.3566 33.0275 39.9725 33.1002 40.6612 33.0888C42.0294 33.0729 43.7158 32.7638 44.6112 32.3593C45.3453 32.0275 46.0272 31.5956 46.6363 31.0775C43.643 31.6775 41.9544 31.5184 40.9157 31.1025C40.6588 30.9994 40.4184 30.8593 40.2021 30.6866V30.6888ZM22.9564 30.8843H22.911C22.7973 30.8934 22.6314 30.9297 22.3132 31.2752C21.5632 32.0888 21.3041 32.5979 20.6859 33.0752C20.0723 33.5525 19.27 33.8048 17.67 34.1229C17.1632 34.2229 16.8745 34.3343 16.6791 34.4229C16.7427 34.4729 16.7359 34.4866 16.8291 34.5343C17.0632 34.6593 17.3654 34.7684 17.6063 34.8298C18.295 34.9957 19.4245 35.1911 20.6041 34.9957C21.7814 34.8002 23.0087 34.2525 24.0542 32.8297C24.236 32.5843 24.2542 32.2207 24.1064 31.8297C23.9542 31.4434 23.6269 31.107 23.3951 31.0116C23.2563 30.9476 23.1082 30.9061 22.9564 30.8888V30.8843Z" fill="white"/>
</svg>
