<svg width="50" height="50" viewBox="0 0 50 50" fill="none" xmlns="http://www.w3.org/2000/svg">
<path d="M46.5197 10.2066L28.4826 0.83661C27.407 0.280264 26.2023 0 25.0024 0C23.8025 0 22.5978 0.280264 21.5221 0.840793L3.48026 10.2108C1.329 11.3277 0 13.3941 0 15.6321V34.3721C0 36.6101 1.32422 38.6765 3.48026 39.7934L21.5174 49.1634C22.593 49.7239 23.7929 50 24.9976 50C26.1975 50 27.4022 49.7197 28.4779 49.1634L46.5197 39.7934C48.671 38.6765 50 36.6059 50 34.3721V15.6279C50 13.3941 48.6758 11.3235 46.5197 10.2066ZM32.5509 39.4671L32.5796 40.814C32.5796 40.9772 32.4601 41.1612 32.3167 41.2281L31.4036 41.6883C31.2602 41.751 31.1359 41.6757 31.1359 41.5126L31.1215 40.1866C30.3423 40.471 29.5487 40.5379 29.0468 40.3623C28.9511 40.3288 28.9081 40.2075 28.9464 40.0653L29.2762 38.848C29.3049 38.7518 29.3623 38.6556 29.4388 38.597C29.4674 38.5719 29.4961 38.5552 29.5248 38.5426C29.5774 38.5175 29.63 38.5133 29.673 38.5301C30.218 38.689 30.9112 38.6137 31.5805 38.3209C32.4314 37.9445 33.0003 37.1831 32.9907 36.4302C32.9812 35.7442 32.5605 35.4639 31.5327 35.4555C30.2228 35.4597 28.9989 35.2338 28.9798 33.5439C28.9655 32.1551 29.7877 30.7078 31.0976 29.7959L31.0833 28.4364C31.0833 28.2691 31.198 28.085 31.3462 28.0181L32.2306 27.5245C32.374 27.4617 32.4983 27.5412 32.4983 27.7043L32.5127 29.0638C33.1628 28.838 33.7269 28.7752 34.2385 28.8798C34.3484 28.9049 34.401 29.0387 34.3532 29.1935L34.009 30.3982C33.9803 30.4903 33.9229 30.5823 33.8512 30.6408C33.8246 30.6643 33.7939 30.6841 33.7604 30.6994C33.7126 30.7203 33.6696 30.7245 33.6265 30.7203C33.3923 30.6743 32.8377 30.5697 31.9629 30.9546C31.045 31.3603 30.7247 32.0589 30.7295 32.5776C30.7391 33.1967 31.0976 33.3849 32.3501 33.4017C34.0185 33.4268 34.7356 34.0626 34.7548 35.5308C34.7787 36.9698 33.899 38.5217 32.5509 39.4671ZM45.1429 14.1596L28.0763 23.3833C25.9489 24.4708 24.3809 25.6923 24.3761 27.9386V46.3398C24.3761 47.6826 24.9976 48.5527 25.9489 48.8078C25.6382 48.8538 25.3179 48.8873 25.0024 48.8873C24.0032 48.8873 23.0185 48.6489 22.1532 48.2013L4.11607 38.8313C2.35204 37.9152 1.25729 36.2043 1.25729 34.3679V15.6279C1.25729 13.7915 2.35204 12.0806 4.11607 11.1646L22.1579 1.79453C23.0232 1.34694 24.008 1.10851 25.0072 1.10851C26.0063 1.10851 26.9911 1.34694 27.8564 1.79453L45.8983 11.1646C47.385 11.9384 48.3889 13.2728 48.671 14.7745C48.0639 13.6577 46.7157 13.3565 45.1429 14.1596Z" fill="#fff"/>
</svg>
