<svg width="150" height="150" viewBox="0 0 248 825" fill="none" xmlns="http://www.w3.org/2000/svg">
<path d="M0 511.486L114.97 441.181V824.551L0 680.632V511.486Z" fill="white"/>
<path d="M0 511.486L114.97 441.181V824.551L0 680.632V511.486Z" fill="white"/>
<path d="M239.347 550.671L135.647 616.5L135.647 433L14.8879 313.391L135.647 260.456L239.347 371.29L239.347 550.671Z" fill="white"/>
<path d="M239.347 550.671L135.647 616.5L135.647 433L14.8879 313.391L135.647 260.456L239.347 371.29L239.347 550.671Z" fill="white"/>
<path d="M6 205.7H248V229.9H6V205.7ZM6 36.3L66.5 72.6L127 0L187.5 72.6L248 36.3V181.5H6V36.3Z" fill="white"/>
</svg>
