<svg width="22" height="30" viewBox="0 0 22 50" fill="none" xmlns="http://www.w3.org/2000/svg">
<path d="M21.5544 19.8437C18.9755 8.24734 12.8823 4.44497 12.2276 2.9878C11.5085 1.95435 10.7342 0 10.7342 0C10.7265 0.0406504 10.7265 0.065666 10.7189 0.106316V0.131332C10.7189 0.164165 10.7112 0.1798 10.7112 0.212633V0.245466H10.7035V0.350219H10.6959C10.6959 0.365854 10.6959 0.390869 10.6882 0.398687V0.447154C10.6882 0.462789 10.6882 0.479987 10.6806 0.487805V0.528455C10.6806 0.553471 10.6806 0.576923 10.6729 0.594121V0.601939C10.6715 0.637836 10.6664 0.67348 10.6576 0.708255V0.72389C10.6499 0.731707 10.6499 0.739525 10.6499 0.748906V0.781739H10.6422V0.830206H10.6346V0.863039H10.6192V0.911507H10.6116V0.952158H10.6039V0.984991H10.5962V1.01782H10.5886V1.05066H10.5809V1.08349H10.5732V1.10851H10.5656V1.14134H10.5579V1.17417H10.5502C10.5426 1.17417 10.5426 1.18199 10.5426 1.18199V1.19762L10.5349 1.21326C10.5349 1.22889 10.5272 1.24609 10.5196 1.26173C10.5119 1.26954 10.5119 1.26954 10.5119 1.27736V1.293H10.5042V1.30863H10.4889V1.34928H10.4736V1.3743H10.4659V1.38211H10.4582V1.39775H10.4506V1.42276H10.4429V1.4384H10.4276V1.46341H10.4199V1.47905H10.4122V1.49468H10.4046V1.5197H10.3969V1.53533H10.3892V1.54315H10.3816V1.55879H10.3662V1.5838H10.3586V1.59162H10.3509V1.60725H10.3432V1.63227H10.3356V1.64009H10.3279V1.65572H10.3202V1.66354H10.3126V1.68856H10.2972V1.69637H10.2896V1.71201H10.2819V1.71982H10.2742V1.73546H10.2666V1.75109C10.2589 1.75109 10.2589 1.75891 10.2589 1.75891V1.76673H10.2512L10.2267 1.80738C10.2267 1.80738 10.2114 1.82301 10.2114 1.8324C10.2037 1.8324 10.2037 1.84021 10.2037 1.84021V1.84803H10.196V1.85585H10.1884V1.87148H10.173V1.8793H10.1654V1.88712H10.1577V1.91057H10.15V1.91839H10.1424V1.9262H10.1347V1.94184H10.127V1.9262H10.1117V1.93402H10.104V1.94966H10.0964V1.96529H10.0887V1.97311H10.081V1.98093H10.0734V1.98874H10.0657V2.00438H10.0504V2.0122H10.0427V2.02783H10.035V2.03565H10.0274V2.04346H10.0197V2.06848H10.012V2.0763H10.0044V2.08411H9.99672V2.09193H9.98905V2.09975H9.97372V2.11538H9.96605V2.1232H9.95838V2.13102H9.95072V2.14665H9.94305V2.15447H9.92772V2.16229H9.92005V2.17011H9.91239V2.18574H9.90472V2.20138H9.89705V2.20919H9.88939V2.21701H9.87405V2.22483H9.86639V2.23265H9.85872V2.24828H9.85106V2.2561H9.84339V2.27173H9.83572V2.27955H9.82806V2.28737H9.82039V2.29518H9.81272V2.303H9.79739V2.31082C9.78972 2.31082 9.78972 2.31864 9.78972 2.31864L9.78206 2.32645L9.77439 2.33427V2.34991H9.76673V2.35772H9.75906V2.36554H9.75139V2.37336H9.74373L9.72839 2.38899V2.39681C9.71306 2.40463 9.71306 2.41245 9.6962 2.42964C9.6962 2.42964 9.68086 2.44528 9.67166 2.44528C9.64713 2.46091 9.61647 2.49375 9.59193 2.51876C9.5766 2.52658 9.55974 2.54378 9.5444 2.55159C9.5122 2.58443 9.48001 2.60788 9.44781 2.6329C9.40028 2.68136 9.35121 2.7142 9.29602 2.76266H9.28835L8.9127 3.09725H8.90503C8.56158 3.40682 8.15373 3.8055 7.69069 4.27767L7.65083 4.31832C4.87102 7.24984 0.487425 13.3646 0.0320466 23.2427C-0.0154845 24.0572 -0.0078195 24.8546 0.0397116 25.6285V25.6442C0.263568 29.5372 1.46105 32.8596 2.96211 35.5629C3.55242 36.6385 4.19945 37.6157 4.85415 38.4944C7.10652 41.5244 9.40641 43.324 9.98905 43.7633C10.8921 45.8881 10.8109 49.5528 10.8109 49.5528L12.1279 50C12.1279 50 11.8566 46.4572 12.2322 44.7389C12.3518 44.2089 12.6232 43.7539 12.9436 43.363C13.1675 43.2083 13.8069 42.7361 14.5735 42.02C14.6134 41.9794 14.6379 41.9465 14.6701 41.9059C17.7765 38.9493 23.5829 31.6698 21.5943 19.8139L21.5544 19.8437Z" fill="white"/>
</svg>
