<svg width="52" height="52" viewBox="0 0 52 52" fill="none" xmlns="http://www.w3.org/2000/svg">
<path d="M11.8925 17.667C5.3 19.5558 1 22.7919 1 26.4862C1 32.3388 12.0125 37.1109 25.625 37.1109C27.475 37.1109 28.775 37.0026 30.5 36.8415" stroke="white" stroke-width="2" stroke-linecap="round" stroke-linejoin="round"/>
<path d="M20.5925 36.833C19.56 35.1775 18.5775 33.6859 17.6425 31.8332C10.765 18.2224 8.92254 4.69497 13.5675 1.63116C16.4425 -0.304905 21.185 2.33392 26.0025 7.89211" stroke="white" stroke-width="2" stroke-linecap="round" stroke-linejoin="round"/>
<path d="M12.0726 35.4081C10.3176 42.8746 10.6726 48.5078 13.4726 50.3938C17.9301 53.3938 26.9401 44.9551 33.5801 31.4943C34.4801 29.6332 35.2876 27.8027 36.0001 26" stroke="white" stroke-width="2" stroke-linecap="round" stroke-linejoin="round"/>
<path d="M26 44.1107C30.82 49.6661 35.5425 52.3049 38.445 50.3689C43.07 47.3078 41.2475 33.7804 34.3625 20.1669C33.4025 18.2864 32.42 16.8225 31.4125 15.167" stroke="white" stroke-width="2" stroke-linecap="round" stroke-linejoin="round"/>
<path d="M40.15 34.3334C46.68 32.4251 51 29.1946 51 25.5114C51 19.6504 39.98 14.8894 26.3875 14.8894C24.52 14.8894 23.2225 14.97 21.5 15.1311" stroke="white" stroke-width="2" stroke-linecap="round" stroke-linejoin="round"/>
<path d="M16 25.9999C16.7125 24.1666 17.5175 22.3667 18.42 20.5056C25.0375 7.0504 34.0525 -1.4105 38.535 1.61442C41.31 3.50049 41.69 9.1309 39.935 16.5946M26.65 26.0416H26.625C26.6 26.4027 26.325 26.7082 25.975 26.7082C25.8076 26.699 25.6497 26.6192 25.5335 26.4849C25.4174 26.3507 25.3517 26.1722 25.35 25.986C25.35 25.5972 25.625 25.2916 25.95 25.2916H25.925C26.25 25.2638 26.55 25.5972 26.55 25.9583" stroke="white" stroke-width="2" stroke-linecap="round" stroke-linejoin="round"/>
</svg>
